<?xml version="1.0" encoding="UTF-8" standalone="no"?><!DOCTYPE svg PUBLIC "-//W3C//DTD SVG 1.1//EN" "http://www.w3.org/Graphics/SVG/1.1/DTD/svg11.dtd"><svg width="100%" height="100%" viewBox="0 0 36 19" version="1.1" xmlns="http://www.w3.org/2000/svg" xmlns:xlink="http://www.w3.org/1999/xlink" xml:space="preserve" xmlns:serif="http://www.serif.com/" style="fill-rule:evenodd;clip-rule:evenodd;stroke-linejoin:round;stroke-miterlimit:1.41421;"><path d="M0,15.475l0,-0.52l0.52,0l0,0.52l-0.52,0Zm1.039,3.117l0,-0.52l1.039,0l0,0.52l-1.039,0Zm0,-3.637l-0.519,0l0,-1.039l3.117,0l0,2.598l-0.52,0l0,-2.079l-2.078,0l0,0.52Zm1.039,2.598l0.52,0l0,0.519l-0.52,0l0,-0.519Zm1.039,0l-0.519,0l0,-1.039l0.519,0l0,1.039Z" style="fill-opacity:0.8;fill-rule:nonzero;"/><path d="M4.073,15.994l0,-0.519l1.559,0l0,-1.04l-1.559,0l0,-0.519l4.157,0l0,0.519l-2.078,0l0,1.04l2.078,0l0,0.519l-2.078,0l0,2.078l-0.52,0l0,-2.078l-1.559,0Zm2.079,2.598l0,-0.52l2.078,0l0,0.52l-2.078,0Z" style="fill-opacity:0.8;fill-rule:nonzero;"/><path d="M8.666,18.592l0,-0.52l3.637,0l0,-3.117l-3.637,0l0,-0.52l4.157,0l0,4.157l-4.157,0Z" style="fill-opacity:0.8;fill-rule:nonzero;"/><path d="M13.259,18.592l0,-4.676l0.52,0l0,4.156l1.039,0l0,0.52l-1.559,0Zm1.559,-1.039l1.039,0l0,0.519l-1.039,0l0,-0.519Zm1.039,-0.52l0.52,0l0,0.52l-0.52,0l0,-0.52Zm1.039,0l-0.519,0l0,-1.558l0.519,0l0,1.558Z" style="fill-opacity:0.8;fill-rule:nonzero;"/><path d="M17.333,15.475l0,-0.52l0.519,0l0,0.52l-0.519,0Zm1.039,3.117l0,-0.52l1.039,0l0,0.52l-1.039,0Zm0,-3.637l-0.52,0l0,-1.039l3.118,0l0,2.598l-0.52,0l0,-2.079l-2.078,0l0,0.52Zm1.039,2.598l0.52,0l0,0.519l-0.52,0l0,-0.519Zm1.039,0l-0.519,0l0,-1.039l0.519,0l0,1.039Z" style="fill-opacity:0.8;fill-rule:nonzero;"/><path d="M21.406,15.994l0,-0.519l4.157,0l0,0.519l-1.039,0l0,1.559l-0.52,0l0,-1.559l-2.598,0Zm0.52,2.598l0,-0.52l1.559,0l0,0.52l-1.559,0Zm0,-4.157l0,-0.519l3.117,0l0,0.519l-3.117,0Zm1.559,3.118l0.519,0l0,0.519l-0.519,0l0,-0.519Z" style="fill-opacity:0.8;fill-rule:nonzero;"/><path d="M25.999,17.553l0,-0.52l1.039,0l0,0.52l-1.039,0Zm1.559,1.039l0,-1.559l-0.52,0l0,-0.519l0.52,0l0,-0.52l0.52,0l0,2.598l-0.52,0Zm1.039,-2.598l-0.519,0l0,-1.039l0.519,0l0,1.039Z" style="fill-opacity:0.8;fill-rule:nonzero;"/><path d="M29.033,14.435l0,-0.519l4.157,0l0,2.078l-0.52,0l0,-1.559l-3.637,0Zm0.52,4.157l0,-0.52l1.559,0l0,0.52l-1.559,0Zm4.157,-2.598l0,-1.039l0.519,0l0,1.039l-0.519,0Zm1.039,0l0,-1.039l0.519,0l0,1.039l-0.519,0Zm-3.637,1.559l0.519,0l0,0.519l-0.519,0l0,-0.519Zm0.519,-0.52l0.52,0l0,0.52l-0.52,0l0,-0.52Zm1.039,0l-0.519,0l0,-1.039l0.519,0l0,1.039Z" style="fill-opacity:0.8;fill-rule:nonzero;"/><g><g><path d="M22.704,4.077c-0.459,-2.329 -2.504,-4.077 -4.961,-4.077c-1.951,0 -3.645,1.107 -4.489,2.727c-2.031,0.216 -3.611,1.937 -3.611,4.023c0,2.234 1.816,4.05 4.05,4.05l8.775,0c1.863,0 3.375,-1.512 3.375,-3.375c0,-1.782 -1.384,-3.226 -3.139,-3.348Zm-0.236,5.373l-8.775,0c-1.492,0 -2.7,-1.208 -2.7,-2.7c0,-1.492 1.208,-2.7 2.7,-2.7l0.479,0c0.446,-1.559 1.87,-2.7 3.571,-2.7c2.052,0 3.713,1.66 3.713,3.712l0,0.338l1.012,0c1.121,0 2.025,0.904 2.025,2.025c0,1.12 -0.904,2.025 -2.025,2.025Z" style="fill-rule:nonzero;"/></g></g></svg>